<svg id="Layer_1" data-name="Layer 1" xmlns="http://www.w3.org/2000/svg" viewBox="0 0 500 500"><defs><style>.cls-1{fill:#e0e0df;}.cls-2{fill:#f4f2f1;}.cls-3{fill:#c7514f;}.cls-4{fill:#2e5065;}.cls-5{fill:#8ac1df;}.cls-6{fill:#bd4240;}.cls-7{fill:#d0d0d1;}.cls-8{fill:#abd1e0;}</style></defs><title>Artboard 1 copy 3</title><path class="cls-1" d="M323.81,160H194.68c-26.66,74.61-25,152,0,231.56H323.81C344.89,312.33,346.09,235,323.81,160Z"/><rect class="cls-2" x="207.14" y="182.67" width="26.83" height="26.83" rx="8.25" ry="8.25"/><path class="cls-3" d="M194.68,160.59,254.86,33.25a3.21,3.21,0,0,1,5.77-.05l63.18,127.4C282.06,178,238.89,178.13,194.68,160.59Z"/><circle class="cls-4" cx="258.49" cy="268.98" r="53.65"/><circle class="cls-5" cx="258.49" cy="268.98" r="41.19"/><path class="cls-1" d="M214.88,397.9l8,10.48a47.35,47.35,0,0,0,75.15.13l8.17-10.61Z"/><path class="cls-6" d="M258.49,31.41c-21.62,51.55-36.4,99.5-33.89,138.38a145.37,145.37,0,0,1-29.91-9.2S255.06,27,258.49,31.41Z"/><path class="cls-7" d="M187.57,309.06h0a14.18,14.18,0,0,1,19.72,13.06v61.7h-13l-2.76-4.42a11.9,11.9,0,0,1-1.37-3.12h0a11.9,11.9,0,0,1-.43-2.78Z"/><path class="cls-3" d="M169.32,308h18.25a0,0,0,0,1,0,0v35.44a70.31,70.31,0,0,1-70.31,70.31h0a0,0,0,0,1,0,0v-53.7A52.06,52.06,0,0,1,169.32,308Z"/><path class="cls-3" d="M328,308h0a70.31,70.31,0,0,1,70.31,70.31v35.44a0,0,0,0,1,0,0H380.07A52.06,52.06,0,0,1,328,361.71V308A0,0,0,0,1,328,308Z" transform="translate(726.34 721.79) rotate(-180)"/><rect class="cls-3" x="190.62" y="383.81" width="137.39" height="15.58" rx="4.79" ry="4.79"/><path class="cls-8" d="M263.17,232.4,243,259.16a5.79,5.79,0,0,0,5.71,9.17l2.86-.55a5.79,5.79,0,0,1,6.08,8.61l-12.92,22a5.79,5.79,0,0,0,2.77,8.27l2.14.89a5.79,5.79,0,0,0,7.36-2.68l21.34-41.09a5.79,5.79,0,0,0-5.87-8.41l-.21,0A5.79,5.79,0,0,1,267,246l5.31-6.58c3.7-4.58-1.08-11.31-6.53-9.06l-.42.18A5.81,5.81,0,0,0,263.17,232.4Z"/></svg>