<svg id="Layer_1" data-name="Layer 1" xmlns="http://www.w3.org/2000/svg" viewBox="0 0 500 500"><defs><style>.cls-1{fill:#e9e8e8;}.cls-2{fill:#bcbcbc;}.cls-3{fill:#edcd7e;}.cls-4{fill:#c8aa63;}.cls-5{fill:#f2d9a3;}</style></defs><title>Artboard 1</title><rect class="cls-1" x="276.76" y="245.41" width="37.25" height="119.12" rx="18.63" ry="18.63" transform="translate(-94.1 135.97) rotate(-22.46)"/><rect class="cls-2" x="272.74" y="246.7" width="37.25" height="121.72" rx="18.63" ry="18.63" transform="translate(-95.39 134.62) rotate(-22.46)"/><rect class="cls-1" x="189.6" y="236.07" width="113.76" height="155.62" rx="50.96" ry="50.96" transform="translate(43.1 -29.5) rotate(7.5)"/><circle class="cls-1" cx="262.88" cy="167.55" r="79.48" transform="translate(-30.68 62.66) rotate(-12.85)"/><ellipse class="cls-3" cx="288.05" cy="167.79" rx="59.81" ry="63.49" transform="translate(-30.1 68.26) rotate(-12.85)"/><path class="cls-4" d="M238.6,179.07c-7.31-32,9.62-63.64,38.3-73.52a57.05,57.05,0,0,0-6,1c-32.2,7.35-52,41-44.19,75.2s40.23,55.95,72.43,48.6a57.05,57.05,0,0,0,5.89-1.68C274.87,232.25,245.91,211.12,238.6,179.07Z"/><path class="cls-2" d="M202.69,115.64S178.54,222.52,258.15,246.9c0,0-48.11.78-70.91-53.57C187.24,193.32,172.09,152.14,202.69,115.64Z"/><rect class="cls-2" x="181.19" y="250.1" width="37.25" height="119.12" rx="18.63" ry="18.63" transform="translate(165.76 -57.29) rotate(27.53)"/><rect class="cls-1" x="176.31" y="247.78" width="37.25" height="121.72" rx="18.63" ry="18.63" transform="translate(164.73 -55.16) rotate(27.53)"/><path class="cls-2" d="M285,246.92s31.41,37.83,3,110c0,0-8.21,30.44-50.7,34.28,0,0,39.08,7.61,57.74-29.36a67.57,67.57,0,0,0,4.63-16.54l6.47-49.15S310.08,264.73,285,246.92Z"/><path class="cls-5" d="M297.54,107.76s29.81,18.84,28.8,66.42-31.8,53-31.8,53,49.83-2.45,51-55.06C346.73,117.2,297.54,107.76,297.54,107.76Z"/><path class="cls-2" d="M231.82,101.85q-5.18,5.36-11.46,1.35l-2.21-18.76A5.77,5.77,0,0,1,223.21,78h0a5.77,5.77,0,0,1,6.41,5.06Z"/><path class="cls-1" d="M223.37,79.39l3,25.48a8.4,8.4,0,0,0,5.42-3l-2.14-18.16s-.18-4.92-5-5.59A1.16,1.16,0,0,0,223.37,79.39Z"/></svg>