<svg id="Layer_1" data-name="Layer 1" xmlns="http://www.w3.org/2000/svg" xmlns:xlink="http://www.w3.org/1999/xlink" viewBox="0 0 500 500"><defs><style>.cls-1{fill:none;}.cls-2{fill:#c89657;}.cls-3{fill:#b8884c;}.cls-4{clip-path:url(#clip-path);}.cls-5{fill:#a9765b;}.cls-6{fill:#ac7d52;}</style><clipPath id="clip-path"><circle class="cls-1" cx="250" cy="250" r="250"/></clipPath></defs><title>Artboard 1 copy</title><circle class="cls-2" cx="250" cy="250" r="250"/><path class="cls-3" d="M499.71,244.85C493.44,377.34,400.4,423,266.35,423,148.7,423,33.7,401.57,7.09,292.11l-4.23-4.23C21.11,408,124.8,500,250,500c138.07,0,250-111.93,250-250,0-1.69,0-3.37-.06-5Z"/><g class="cls-4"><path class="cls-5" d="M300.86,402.08l-47.14-47.14a23.89,23.89,0,0,0,2.14,1.89,23.68,23.68,0,0,1,1.89-31.35h0a23.68,23.68,0,0,1,31.35-1.89,23.89,23.89,0,0,0-1.89-2.14l47.14,47.14a23.68,23.68,0,0,0,33.49-33.49L163.17,130.41a23.68,23.68,0,0,0-33.49,33.49l52.72,52.72a23.68,23.68,0,0,0-33.49,0h0a23.68,23.68,0,0,0,0,33.49L196,297.26c-.52-.52-1.07-1-1.62-1.48a23.68,23.68,0,0,1-1.48,31.87h0a23.68,23.68,0,0,1-31.87,1.48c.46.56,1,1.1,1.48,1.62L99.28,267.49a23.68,23.68,0,0,0-33.49,0h0a23.68,23.68,0,0,0,0,33.49L7.9,243.09a23.68,23.68,0,0,0-33.49,0,23.68,23.68,0,0,0,0,33.49L179.09,481.26a23.68,23.68,0,0,0,33.49-33.49l-9.72-9.72c.5.5,1,1,1.54,1.4a23.68,23.68,0,0,1,1.4-32h0a23.68,23.68,0,0,1,32-1.4c-.44-.53-.91-1-1.4-1.54l31,31a23.68,23.68,0,0,0,33.49,0h0A23.68,23.68,0,0,0,300.86,402.08Z"/><path class="cls-6" d="M199.14,97.92l47.14,47.14a23.89,23.89,0,0,0-2.14-1.89,23.68,23.68,0,0,1-1.89,31.35h0a23.68,23.68,0,0,1-31.35,1.89,23.89,23.89,0,0,0,1.89,2.14l-47.14-47.14a23.68,23.68,0,0,0-33.49,33.49L336.83,369.59a23.68,23.68,0,0,0,33.49-33.49l-52.72-52.72a23.68,23.68,0,0,0,33.49,0h0a23.68,23.68,0,0,0,0-33.49L304,202.74c.52.52,1.07,1,1.62,1.48a23.68,23.68,0,0,1,1.48-31.87h0a23.68,23.68,0,0,1,31.87-1.48c-.46-.56-1-1.1-1.48-1.62l63.26,63.26a23.68,23.68,0,0,0,33.49,0h0a23.68,23.68,0,0,0,0-33.49l57.89,57.89a23.68,23.68,0,1,0,33.49-33.49L320.91,18.74a23.68,23.68,0,1,0-33.49,33.49l9.72,9.72c-.5-.5-1-1-1.54-1.4a23.68,23.68,0,0,1-1.4,32h0a23.68,23.68,0,0,1-32,1.4c.44.53.91,1,1.4,1.54l-31-31a23.68,23.68,0,0,0-33.49,0h0A23.68,23.68,0,0,0,199.14,97.92Z"/></g></svg>